<svg xmlns="http://www.w3.org/2000/svg" viewBox="0 0 181 56"><path fill="white" d="M37.108 10.713H26.6l5.254 9.187zm-11.821.766l-5.254 9.191H30.54zm18.389 9.191l-5.254-9.19-5.254 9.191h10.508zM33.168 22.2l5.254 9.188 5.254-9.188H33.168zm-13.136 0l5.254 9.188L30.54 22.2H20.032zm-6.568 9.952h10.507l-5.253-9.187zm36.779 0l-5.253-9.185-5.252 9.187h10.505zM31.854-.006L26.6 9.184h10.508zm13.136 42.88l5.254-9.188H39.738zm-26.271 0l5.253-9.188H13.465zM6.9 43.641h10.5l-5.253-9.19zm49.914 0l-5.254-9.19-5.26 9.19h10.511zM46.3 45.172l5.254 9.187 5.254-9.187H46.3zm-13.135 0l5.254 9.187 5.254-9.187H33.168zm-21.014 9.187l5.249-9.187H6.9zm-11.82.769h10.5l-5.249-9.189zm26.269 0h10.508l-5.254-9.188zm13.137 0h10.506l-5.253-9.189zm18.388-9.188l-5.252 9.188h10.5zm23.93-19.607l-4.59 10.914-8.772-21.387h-2.55L76.343 40h2.074l5.1-11.934L88.583 40h2.108l10.234-24.14h-2.584L89.6 37.246l-4.621-10.914L89.2 16.03h-2.283l-3.434 8.57-3.4-8.568h-2.244zm28.883 13.157a8.03 8.03 0 0 0 3.077-2.448l.068 1.394a1.658 1.658 0 0 0 .527 1.224 1.988 1.988 0 0 0 1.377.442 5.52 5.52 0 0 0 .884-.1V37.96a.8.8 0 0 1-.85-.952v-7.99a6.915 6.915 0 0 0-1.9-5.168 7.153 7.153 0 0 0-5.236-1.87 11.961 11.961 0 0 0-6.664 2.312l.816 1.53a13.436 13.436 0 0 1 2.89-1.564 7.81 7.81 0 0 1 2.788-.544 4.858 4.858 0 0 1 3.672 1.377 5.141 5.141 0 0 1 1.326 3.723v1.6a11.985 11.985 0 0 0-2.482-.68 16.392 16.392 0 0 0-2.754-.238 10.813 10.813 0 0 0-2.992.391 7.487 7.487 0 0 0-2.346 1.1 5.172 5.172 0 0 0-1.53 1.7 4.36 4.36 0 0 0-.544 2.142 5.283 5.283 0 0 0 1.683 3.91 5.866 5.866 0 0 0 1.87 1.173 6.259 6.259 0 0 0 2.329.425 9.474 9.474 0 0 0 3.991-.847zm-5.117-1.224a4.127 4.127 0 0 1-1.343-.833 3.87 3.87 0 0 1-.884-1.241 3.658 3.658 0 0 1-.323-1.53 3.1 3.1 0 0 1 1.53-2.686 7.047 7.047 0 0 1 3.978-1.02 13.456 13.456 0 0 1 2.533.238 14.236 14.236 0 0 1 2.4.68v2.89a1.693 1.693 0 0 1-.153.663 2.118 2.118 0 0 1-.459.663 5.421 5.421 0 0 1-2.295 1.8 7.99 7.99 0 0 1-3.315.68 4.527 4.527 0 0 1-1.669-.304zm11.8-15.98l6.766 8.908L117.619 40h2.481l5.3-6.9.272-.476.272.476 5.3 6.9h2.482l-6.766-8.806 6.766-8.908h-2.482l-5.3 6.936-.272.51-.272-.51-5.3-6.936h-2.482zm28.917 17.323a8.641 8.641 0 0 0 2.788-1.989 9.026 9.026 0 0 0 1.819-2.924 9.614 9.614 0 0 0 .646-3.5 9.476 9.476 0 0 0-.663-3.536 9.271 9.271 0 0 0-1.836-2.924 8.875 8.875 0 0 0-2.788-2.006 8.278 8.278 0 0 0-3.519-.748 8.159 8.159 0 0 0-3.5.748 8.917 8.917 0 0 0-2.771 2.006 9.271 9.271 0 0 0-1.836 2.924 9.476 9.476 0 0 0-.663 3.536 9.593 9.593 0 0 0 .646 3.5 9.009 9.009 0 0 0 1.819 2.924 8.679 8.679 0 0 0 2.771 1.989 8.4 8.4 0 0 0 3.536.731 8.519 8.519 0 0 0 3.549-.731zm-9.469-11.186a7.453 7.453 0 0 1 1.394-2.295 6.573 6.573 0 0 1 2.04-1.547 5.608 5.608 0 0 1 2.482-.561 5.719 5.719 0 0 1 2.5.561 6.644 6.644 0 0 1 2.057 1.53 7.253 7.253 0 0 1 1.394 2.278 7.829 7.829 0 0 1 0 5.559 7.292 7.292 0 0 1-1.394 2.261 6.644 6.644 0 0 1-2.057 1.53 5.719 5.719 0 0 1-2.5.561 5.866 5.866 0 0 1-2.5-.544 6.22 6.22 0 0 1-2.04-1.513A7.521 7.521 0 0 1 137.067 34a7.392 7.392 0 0 1-.51-2.771 7.659 7.659 0 0 1 .51-2.806zm43.587 1.207a15.7 15.7 0 0 0-.289-3.145 7.221 7.221 0 0 0-.918-2.414 4.283 4.283 0 0 0-1.666-1.547 5.4 5.4 0 0 0-2.533-.544q-4.351 0-6.834 4.556a5.474 5.474 0 0 0-1.649-3.3 5.036 5.036 0 0 0-3.587-1.258 7.073 7.073 0 0 0-3.91 1.139 8.388 8.388 0 0 0-2.856 3.179v-4.01H154.3V40h2.312V29.154a7.777 7.777 0 0 1 2.244-3.672 5.216 5.216 0 0 1 3.57-1.394 3.269 3.269 0 0 1 2.924 1.428 8.5 8.5 0 0 1 .952 4.59V40h2.312V29.188a7.8 7.8 0 0 1 .884-2.057 7.255 7.255 0 0 1 1.343-1.615 5.927 5.927 0 0 1 1.666-1.054 4.964 4.964 0 0 1 1.921-.374 3.3 3.3 0 0 1 2.924 1.462 8.283 8.283 0 0 1 .986 4.556V40h2.312V29.63z"/></svg>